<svg xmlns="http://www.w3.org/2000/svg" viewBox="0 0 107.527 161.263"><defs><style>.a{fill:#ffeb3b;}.a,.b{stroke:#ff3434;}.b{fill:#fff;}</style></defs><g transform="translate(-348.49 -421.376)"><g transform="translate(274.322 374)"><path class="a" d="M109.689,188.63l36.744-.161,4.247,5.268s2.6-3.124,7.231-11.4c2.983-14.73,19.863-32.362,23.143-46.447a46.11,46.11,0,0,0-4.354-20.966c-.034-3.762-.484-54.51-.484-54.51S173.473,54.29,147.831,48l-4.677,49.35-15.294,2.9-13.9-2.58s-4.892-45.479-5.107-48.758C92.729,49.129,79.4,59.88,79.4,59.88v54.833A111.676,111.676,0,0,0,75.557,128a36.957,36.957,0,0,0-.889,6.937c3.6,14.588,23.748,38.512,23.659,47.691.01.167,0,.321,0,.48l7.089,10.956Z"/><path class="a" d="M123.195,205.258l1.532-1.613,6.451-.161,1.693,1.855S143.838,203.4,151.095,208c3.226-1.935,7.741-13.977,7.741-13.977.006-.087.006-.182.009-.273a34.85,34.85,0,0,0-.976-6.133L150.584,198.7l-4.542-5.746-35.372.325-5.4,4.866-6.907-10.531a62.106,62.106,0,0,0-1.2,7.512c.111.316,2.754,7.743,7.489,12.872A25.254,25.254,0,0,1,123.195,205.258Z"/></g><g transform="translate(273.322 372)"><path class="b" d="M86.708,121.863s30.333,14.376,29.674,15.482c-.484,3.629-4.032,6.773-4.032,6.773C76.387,142.668,86.708,121.863,86.708,121.863Z"/><path class="b" d="M170.365,121.851s-30.333,14.376-29.674,15.482c.484,3.629,4.032,6.773,4.032,6.773C180.687,142.655,170.365,121.851,170.365,121.851Z"/></g></g></svg>