<svg xmlns="http://www.w3.org/2000/svg" xmlns:xlink="http://www.w3.org/1999/xlink" viewBox="0 0 68.538 49"><defs><style>.a{fill:#fff;}.b{filter:url(#i);}.c{filter:url(#g);}.d{filter:url(#e);}.e{filter:url(#c);}.f{filter:url(#a);}</style><filter id="a" x="0" y="0" width="68.538" height="23" filterUnits="userSpaceOnUse"><feOffset dy="3" input="SourceAlpha"/><feGaussianBlur stdDeviation="3" result="b"/><feFlood flood-opacity="0.161"/><feComposite operator="in" in2="b"/><feComposite in="SourceGraphic"/></filter><filter id="c" x="0" y="13" width="42.538" height="23" filterUnits="userSpaceOnUse"><feOffset dy="3" input="SourceAlpha"/><feGaussianBlur stdDeviation="3" result="d"/><feFlood flood-opacity="0.161"/><feComposite operator="in" in2="d"/><feComposite in="SourceGraphic"/></filter><filter id="e" x="0" y="26" width="68.538" height="23" filterUnits="userSpaceOnUse"><feOffset dy="3" input="SourceAlpha"/><feGaussianBlur stdDeviation="3" result="f"/><feFlood flood-opacity="0.161"/><feComposite operator="in" in2="f"/><feComposite in="SourceGraphic"/></filter><filter id="g" x="43" y="13" width="24" height="24" filterUnits="userSpaceOnUse"><feOffset dy="3" input="SourceAlpha"/><feGaussianBlur stdDeviation="3" result="h"/><feFlood flood-opacity="0.161"/><feComposite operator="in" in2="h"/><feComposite in="SourceGraphic"/></filter><filter id="i" x="33" y="13" width="24" height="24" filterUnits="userSpaceOnUse"><feOffset dy="3" input="SourceAlpha"/><feGaussianBlur stdDeviation="3" result="j"/><feFlood flood-opacity="0.161"/><feComposite operator="in" in2="j"/><feComposite in="SourceGraphic"/></filter></defs><g transform="translate(-397 -484)"><g transform="translate(-554 -85)"><g class="f" transform="matrix(1, 0, 0, 1, 951, 569)"><path class="a" d="M2.527,0H48.011a2.514,2.514,0,0,1,2.527,2.5A2.514,2.514,0,0,1,48.011,5H2.527A2.514,2.514,0,0,1,0,2.5,2.514,2.514,0,0,1,2.527,0Z" transform="translate(9 6)"/></g><g class="e" transform="matrix(1, 0, 0, 1, 951, 569)"><rect class="a" width="24.538" height="5" rx="2.5" transform="translate(9 19)"/></g><g class="d" transform="matrix(1, 0, 0, 1, 951, 569)"><rect class="a" width="50.538" height="5" rx="2.5" transform="translate(9 32)"/></g></g><g class="c" transform="matrix(1, 0, 0, 1, 397, 484)"><circle class="a" cx="3" cy="3" r="3" transform="translate(52 19)"/></g><g class="b" transform="matrix(1, 0, 0, 1, 397, 484)"><path class="a" d="M3,0A3,3,0,1,1,0,3,3,3,0,0,1,3,0Z" transform="translate(42 19)"/></g></g></svg>